<svg width="19" height="20" viewBox="0 0 19 20" fill="none" xmlns="http://www.w3.org/2000/svg">
<path d="M9.12001 0.816403H6.88561C6.79441 0.816403 6.73361 0.737302 6.73361 0.658201C6.73361 0.579101 6.80961 0.5 6.88561 0.5H9.12001C9.21121 0.5 9.27201 0.579101 9.27201 0.658201C9.27201 0.737302 9.21121 0.816403 9.12001 0.816403Z" fill="#0F0F0F"/>
<path d="M9.11999 1.51245H5.21358C5.12238 1.51245 5.06158 1.43335 5.06158 1.35425C5.06158 1.25933 5.13758 1.19604 5.21358 1.19604H9.13518C9.22638 1.19604 9.28718 1.27515 9.28718 1.35425C9.27198 1.43335 9.21119 1.51245 9.11999 1.51245Z" fill="#0F0F0F"/>
<path d="M9.11997 2.19287H4.07357C3.98237 2.19287 3.92157 2.11377 3.92157 2.03467C3.92157 1.95557 3.99757 1.87646 4.07357 1.87646H9.11997C9.21117 1.87646 9.27197 1.95557 9.27197 2.03467C9.27197 2.11377 9.21117 2.19287 9.11997 2.19287Z" fill="#0F0F0F"/>
<path d="M9.12003 2.88891H3.28323C3.19203 2.88891 3.13123 2.80981 3.13123 2.73071C3.13123 2.63579 3.20723 2.57251 3.28323 2.57251H9.13523C9.22643 2.57251 9.28723 2.65161 9.28723 2.73071C9.27203 2.82563 9.21123 2.88891 9.12003 2.88891Z" fill="#0F0F0F"/>
<path d="M9.12001 3.58496H2.58401C2.49281 3.58496 2.43201 3.50586 2.43201 3.42676C2.43201 3.34766 2.50801 3.26855 2.58401 3.26855H9.12001C9.21121 3.26855 9.27201 3.34766 9.27201 3.42676C9.27201 3.50586 9.21121 3.58496 9.12001 3.58496Z" fill="#0F0F0F"/>
<path d="M9.12003 4.281H2.00643C1.91523 4.281 1.85443 4.2019 1.85443 4.1228C1.85443 4.02788 1.93043 3.9646 2.00643 3.9646H9.13523C9.22643 3.9646 9.28723 4.0437 9.28723 4.1228C9.27203 4.2019 9.21123 4.281 9.12003 4.281Z" fill="#0F0F0F"/>
<path d="M9.12003 4.96118H1.58083C1.48963 4.96118 1.42883 4.88208 1.42883 4.80298C1.42883 4.70806 1.50483 4.64478 1.58083 4.64478H9.12003C9.21123 4.64478 9.27203 4.72388 9.27203 4.80298C9.27203 4.8979 9.21123 4.96118 9.12003 4.96118Z" fill="#0F0F0F"/>
<path d="M9.12003 5.65747H1.20083C1.10963 5.65747 1.04883 5.57837 1.04883 5.49927C1.04883 5.40435 1.12483 5.34106 1.20083 5.34106H9.12003C9.21123 5.34106 9.27203 5.42017 9.27203 5.49927C9.27203 5.59419 9.21123 5.65747 9.12003 5.65747Z" fill="#0F0F0F"/>
<path d="M9.12002 6.35351H0.866417C0.775217 6.35351 0.714417 6.27441 0.714417 6.19531C0.714417 6.11621 0.790417 6.03711 0.866417 6.03711H9.13522C9.22642 6.03711 9.28722 6.11621 9.28722 6.19531C9.28722 6.27441 9.21122 6.35351 9.12002 6.35351Z" fill="#0F0F0F"/>
<path d="M9.12 7.04956H0.577598C0.486398 7.04956 0.425598 6.97046 0.425598 6.89136C0.425598 6.79643 0.501598 6.73315 0.577598 6.73315H9.12C9.2112 6.73315 9.272 6.81226 9.272 6.89136C9.272 6.97046 9.2112 7.04956 9.12 7.04956Z" fill="#0F0F0F"/>
<path d="M9.12003 7.72973H0.380027C0.288827 7.72973 0.228027 7.65063 0.228027 7.57153C0.228027 7.49243 0.304027 7.41333 0.380027 7.41333H9.12003C9.21123 7.41333 9.27203 7.49243 9.27203 7.57153C9.27203 7.65063 9.21123 7.72973 9.12003 7.72973Z" fill="#0F0F0F"/>
<path d="M9.12003 8.42578H0.380027C0.288827 8.42578 0.228027 8.34668 0.228027 8.26758C0.228027 8.18848 0.304027 8.10938 0.380027 8.10938H9.12003C9.21123 8.10938 9.27203 8.18848 9.27203 8.26758C9.27203 8.34668 9.21123 8.42578 9.12003 8.42578Z" fill="#0F0F0F"/>
<path d="M9.12 9.12207H0.152C0.0608 9.12207 0 9.04297 0 8.96387C0 8.86894 0.076 8.80566 0.152 8.80566H9.1352C9.2264 8.80566 9.2872 8.88476 9.2872 8.96387C9.272 9.04297 9.2112 9.12207 9.12 9.12207Z" fill="#0F0F0F"/>
<path d="M9.12 9.81811H0.152C0.0608 9.81811 0 9.73901 0 9.65991C0 9.58081 0.076 9.50171 0.152 9.50171H9.1352C9.2264 9.50171 9.2872 9.58081 9.2872 9.65991C9.2872 9.73901 9.2112 9.81811 9.12 9.81811Z" fill="#0F0F0F"/>
<path d="M9.12 10.4983H0.152C0.0608 10.4983 0 10.4192 0 10.3401C0 10.261 0.076 10.1819 0.152 10.1819H9.1352C9.2264 10.1819 9.2872 10.261 9.2872 10.3401C9.2872 10.4192 9.2112 10.4983 9.12 10.4983Z" fill="#0F0F0F"/>
<path d="M9.12 11.1943H0.152C0.0608 11.1943 0 11.1152 0 11.0361C0 10.9412 0.076 10.8779 0.152 10.8779H9.1352C9.2264 10.8779 9.2872 10.957 9.2872 11.0361C9.272 11.1311 9.2112 11.1943 9.12 11.1943Z" fill="#0F0F0F"/>
<path d="M9.12003 11.8906H0.380027C0.288827 11.8906 0.228027 11.8115 0.228027 11.7324C0.228027 11.6533 0.304027 11.5742 0.380027 11.5742H9.12003C9.21123 11.5742 9.27203 11.6533 9.27203 11.7324C9.27203 11.8115 9.21123 11.8906 9.12003 11.8906Z" fill="#0F0F0F"/>
<path d="M9.12003 12.5867H0.380027C0.288827 12.5867 0.228027 12.5076 0.228027 12.4285C0.228027 12.3494 0.304027 12.2703 0.380027 12.2703H9.12003C9.21123 12.2703 9.27203 12.3494 9.27203 12.4285C9.27203 12.5076 9.21123 12.5867 9.12003 12.5867Z" fill="#0F0F0F"/>
<path d="M9.12 13.2668H0.577598C0.486398 13.2668 0.425598 13.1877 0.425598 13.1086C0.425598 13.0137 0.501598 12.9504 0.577598 12.9504H9.12C9.2112 12.9504 9.272 13.0295 9.272 13.1086C9.272 13.2036 9.2112 13.2668 9.12 13.2668Z" fill="#0F0F0F"/>
<path d="M9.12002 13.9629H0.866417C0.775217 13.9629 0.714417 13.8838 0.714417 13.8047C0.714417 13.7256 0.790417 13.6465 0.866417 13.6465H9.13522C9.22642 13.6465 9.28722 13.7256 9.28722 13.8047C9.28722 13.8838 9.21122 13.9629 9.12002 13.9629Z" fill="#0F0F0F"/>
<path d="M9.12003 14.6589H1.20083C1.10963 14.6589 1.04883 14.5798 1.04883 14.5007C1.04883 14.4058 1.12483 14.3425 1.20083 14.3425H9.12003C9.21123 14.3425 9.27203 14.4216 9.27203 14.5007C9.27203 14.5798 9.21123 14.6589 9.12003 14.6589Z" fill="#0F0F0F"/>
<path d="M9.12003 15.3552H1.58083C1.48963 15.3552 1.42883 15.2761 1.42883 15.197C1.42883 15.1021 1.50483 15.0388 1.58083 15.0388H9.12003C9.21123 15.0388 9.27203 15.1179 9.27203 15.197C9.27203 15.2761 9.21123 15.3552 9.12003 15.3552Z" fill="#0F0F0F"/>
<path d="M9.12003 16.0513H2.00643C1.91523 16.0513 1.85443 15.9722 1.85443 15.8931C1.85443 15.7981 1.93043 15.7349 2.00643 15.7349H9.13523C9.22643 15.7349 9.28723 15.814 9.28723 15.8931C9.27203 15.9722 9.21123 16.0513 9.12003 16.0513Z" fill="#0F0F0F"/>
<path d="M9.12001 16.7314H2.58401C2.49281 16.7314 2.43201 16.6523 2.43201 16.5732C2.43201 16.4783 2.50801 16.415 2.58401 16.415H9.12001C9.21121 16.415 9.27201 16.4941 9.27201 16.5732C9.27201 16.6682 9.21121 16.7314 9.12001 16.7314Z" fill="#0F0F0F"/>
<path d="M9.12003 17.4275H3.28323C3.19203 17.4275 3.13123 17.3484 3.13123 17.2693C3.13123 17.1744 3.20723 17.1111 3.28323 17.1111H9.13523C9.22643 17.1111 9.28723 17.1902 9.28723 17.2693C9.27203 17.3642 9.21123 17.4275 9.12003 17.4275Z" fill="#0F0F0F"/>
<path d="M9.11997 18.1235H4.07357C3.98237 18.1235 3.92157 18.0444 3.92157 17.9653C3.92157 17.8862 3.99757 17.8071 4.07357 17.8071H9.11997C9.21117 17.8071 9.27197 17.8862 9.27197 17.9653C9.27197 18.0444 9.21117 18.1235 9.11997 18.1235Z" fill="#0F0F0F"/>
<path d="M9.11999 18.8198H5.21358C5.12238 18.8198 5.06158 18.7407 5.06158 18.6616C5.06158 18.5667 5.13758 18.5034 5.21358 18.5034H9.13518C9.22638 18.5034 9.28718 18.5825 9.28718 18.6616C9.27198 18.7407 9.21119 18.8198 9.11999 18.8198Z" fill="#0F0F0F"/>
<path d="M9.11998 19.5H6.88558C6.79438 19.5 6.73358 19.4209 6.73358 19.3418C6.73358 19.2469 6.80958 19.1836 6.88558 19.1836H9.11998C9.21118 19.1836 9.27198 19.2627 9.27198 19.3418C9.27198 19.4367 9.21118 19.5 9.11998 19.5Z" fill="#0F0F0F"/>
<path d="M12.0992 19.5H9.86477C9.77357 19.5 9.71277 19.4209 9.71277 19.3418C9.71277 19.2469 9.78877 19.1836 9.86477 19.1836H12.0992C12.1904 19.1836 12.2512 19.2627 12.2512 19.3418C12.2512 19.4367 12.1752 19.5 12.0992 19.5Z" fill="#0F0F0F"/>
<path d="M13.7712 18.8198H9.86477C9.77357 18.8198 9.71277 18.7407 9.71277 18.6616C9.71277 18.5667 9.78877 18.5034 9.86477 18.5034H13.7864C13.8776 18.5034 13.9384 18.5825 13.9384 18.6616C13.9232 18.7407 13.8624 18.8198 13.7712 18.8198Z" fill="#0F0F0F"/>
<path d="M14.9112 18.1235H9.86477C9.77357 18.1235 9.71277 18.0444 9.71277 17.9653C9.71277 17.8862 9.78877 17.8071 9.86477 17.8071H14.9112C15.0024 17.8071 15.0632 17.8862 15.0632 17.9653C15.0632 18.0444 15.0024 18.1235 14.9112 18.1235Z" fill="#0F0F0F"/>
<path d="M15.7016 17.4275H9.86477C9.77357 17.4275 9.71277 17.3484 9.71277 17.2693C9.71277 17.1744 9.78877 17.1111 9.86477 17.1111H15.7168C15.808 17.1111 15.8688 17.1902 15.8688 17.2693C15.8536 17.3642 15.7928 17.4275 15.7016 17.4275Z" fill="#0F0F0F"/>
<path d="M16.4008 16.7314H9.86477C9.77357 16.7314 9.71277 16.6523 9.71277 16.5732C9.71277 16.4783 9.78877 16.415 9.86477 16.415H16.4008C16.492 16.415 16.5528 16.4941 16.5528 16.5732C16.5528 16.6682 16.4768 16.7314 16.4008 16.7314Z" fill="#0F0F0F"/>
<path d="M16.9784 16.0513H9.86477C9.77357 16.0513 9.71277 15.9722 9.71277 15.8931C9.71277 15.7981 9.78877 15.7349 9.86477 15.7349H16.9936C17.0848 15.7349 17.1456 15.814 17.1456 15.8931C17.1304 15.9722 17.0696 16.0513 16.9784 16.0513Z" fill="#0F0F0F"/>
<path d="M17.404 15.3552H9.86477C9.77357 15.3552 9.71277 15.2761 9.71277 15.197C9.71277 15.1021 9.78877 15.0388 9.86477 15.0388H17.404C17.4952 15.0388 17.556 15.1179 17.556 15.197C17.556 15.2761 17.48 15.3552 17.404 15.3552Z" fill="#0F0F0F"/>
<path d="M17.784 14.6589H9.86477C9.77357 14.6589 9.71277 14.5798 9.71277 14.5007C9.71277 14.4058 9.78877 14.3425 9.86477 14.3425H17.784C17.8752 14.3425 17.936 14.4216 17.936 14.5007C17.936 14.5798 17.86 14.6589 17.784 14.6589Z" fill="#0F0F0F"/>
<path d="M18.1184 13.9629H9.86477C9.77357 13.9629 9.71277 13.8838 9.71277 13.8047C9.71277 13.7256 9.78877 13.6465 9.86477 13.6465H18.1184C18.2096 13.6465 18.2704 13.7256 18.2704 13.8047C18.2704 13.8838 18.2096 13.9629 18.1184 13.9629Z" fill="#0F0F0F"/>
<path d="M18.4072 13.2668H9.86477C9.77357 13.2668 9.71277 13.1877 9.71277 13.1086C9.71277 13.0137 9.78877 12.9504 9.86477 12.9504H18.4072C18.4984 12.9504 18.5592 13.0295 18.5592 13.1086C18.5592 13.2036 18.4832 13.2668 18.4072 13.2668Z" fill="#0F0F0F"/>
<path d="M18.6048 12.5867H9.86477C9.77357 12.5867 9.71277 12.5076 9.71277 12.4285C9.71277 12.3494 9.78877 12.2703 9.86477 12.2703H18.6048C18.696 12.2703 18.7568 12.3494 18.7568 12.4285C18.7568 12.5076 18.696 12.5867 18.6048 12.5867Z" fill="#0F0F0F"/>
<path d="M18.6048 11.8906H9.86477C9.77357 11.8906 9.71277 11.8115 9.71277 11.7324C9.71277 11.6533 9.78877 11.5742 9.86477 11.5742H18.6048C18.696 11.5742 18.7568 11.6533 18.7568 11.7324C18.7568 11.8115 18.696 11.8906 18.6048 11.8906Z" fill="#0F0F0F"/>
<path d="M18.8328 11.1943H9.86477C9.77357 11.1943 9.71277 11.1152 9.71277 11.0361C9.71277 10.9412 9.78877 10.8779 9.86477 10.8779H18.848C18.9392 10.8779 19 10.957 19 11.0361C19 11.1311 18.924 11.1943 18.8328 11.1943Z" fill="#0F0F0F"/>
<path d="M18.8328 10.4983H9.86477C9.77357 10.4983 9.71277 10.4192 9.71277 10.3401C9.71277 10.261 9.78877 10.1819 9.86477 10.1819H18.848C18.9392 10.1819 19 10.261 19 10.3401C19 10.4192 18.924 10.4983 18.8328 10.4983Z" fill="#0F0F0F"/>
<path d="M18.8328 9.81811H9.86477C9.77357 9.81811 9.71277 9.73901 9.71277 9.65991C9.71277 9.58081 9.78877 9.50171 9.86477 9.50171H18.848C18.9392 9.50171 19 9.58081 19 9.65991C19 9.73901 18.924 9.81811 18.8328 9.81811Z" fill="#0F0F0F"/>
<path d="M18.8328 9.12207H9.86477C9.77357 9.12207 9.71277 9.04297 9.71277 8.96387C9.71277 8.88476 9.78877 8.80566 9.86477 8.80566H18.848C18.9392 8.80566 19 8.88476 19 8.96387C19 9.04297 18.924 9.12207 18.8328 9.12207Z" fill="#0F0F0F"/>
<path d="M18.6048 8.42578H9.86477C9.77357 8.42578 9.71277 8.34668 9.71277 8.26758C9.71277 8.18848 9.78877 8.10938 9.86477 8.10938H18.6048C18.696 8.10938 18.7568 8.18848 18.7568 8.26758C18.7568 8.34668 18.696 8.42578 18.6048 8.42578Z" fill="#0F0F0F"/>
<path d="M18.6048 7.72973H9.86477C9.77357 7.72973 9.71277 7.65063 9.71277 7.57153C9.71277 7.49243 9.78877 7.41333 9.86477 7.41333H18.6048C18.696 7.41333 18.7568 7.49243 18.7568 7.57153C18.7568 7.65063 18.696 7.72973 18.6048 7.72973Z" fill="#0F0F0F"/>
<path d="M18.4072 7.04956H9.86477C9.77357 7.04956 9.71277 6.97046 9.71277 6.89136C9.71277 6.79643 9.78877 6.73315 9.86477 6.73315H18.4072C18.4984 6.73315 18.5592 6.81226 18.5592 6.89136C18.5592 6.97046 18.4832 7.04956 18.4072 7.04956Z" fill="#0F0F0F"/>
<path d="M18.1184 6.35351H9.86477C9.77357 6.35351 9.71277 6.27441 9.71277 6.19531C9.71277 6.11621 9.78877 6.03711 9.86477 6.03711H18.1184C18.2096 6.03711 18.2704 6.11621 18.2704 6.19531C18.2704 6.27441 18.2096 6.35351 18.1184 6.35351Z" fill="#0F0F0F"/>
<path d="M17.784 5.65747H9.86477C9.77357 5.65747 9.71277 5.57837 9.71277 5.49927C9.71277 5.40435 9.78877 5.34106 9.86477 5.34106H17.784C17.8752 5.34106 17.936 5.42017 17.936 5.49927C17.936 5.59419 17.86 5.65747 17.784 5.65747Z" fill="#0F0F0F"/>
<path d="M17.404 4.96118H9.86477C9.77357 4.96118 9.71277 4.88208 9.71277 4.80298C9.71277 4.70806 9.78877 4.64478 9.86477 4.64478H17.404C17.4952 4.64478 17.556 4.72388 17.556 4.80298C17.556 4.8979 17.48 4.96118 17.404 4.96118Z" fill="#0F0F0F"/>
<path d="M16.9784 4.281H9.86477C9.77357 4.281 9.71277 4.2019 9.71277 4.1228C9.71277 4.02788 9.78877 3.9646 9.86477 3.9646H16.9936C17.0848 3.9646 17.1456 4.0437 17.1456 4.1228C17.1304 4.2019 17.0696 4.281 16.9784 4.281Z" fill="#0F0F0F"/>
<path d="M16.4008 3.58496H9.86477C9.77357 3.58496 9.71277 3.50586 9.71277 3.42676C9.71277 3.34766 9.78877 3.26855 9.86477 3.26855H16.4008C16.492 3.26855 16.5528 3.34766 16.5528 3.42676C16.5528 3.50586 16.4768 3.58496 16.4008 3.58496Z" fill="#0F0F0F"/>
<path d="M15.7016 2.88891H9.86477C9.77357 2.88891 9.71277 2.80981 9.71277 2.73071C9.71277 2.63579 9.78877 2.57251 9.86477 2.57251H15.7168C15.808 2.57251 15.8688 2.65161 15.8688 2.73071C15.8536 2.82563 15.7928 2.88891 15.7016 2.88891Z" fill="#0F0F0F"/>
<path d="M14.9112 2.19287H9.86477C9.77357 2.19287 9.71277 2.11377 9.71277 2.03467C9.71277 1.95557 9.78877 1.87646 9.86477 1.87646H14.9112C15.0024 1.87646 15.0632 1.95557 15.0632 2.03467C15.0632 2.11377 15.0024 2.19287 14.9112 2.19287Z" fill="#0F0F0F"/>
<path d="M13.7712 1.51245H9.86477C9.77357 1.51245 9.71277 1.43335 9.71277 1.35425C9.71277 1.25933 9.78877 1.19604 9.86477 1.19604H13.7864C13.8776 1.19604 13.9384 1.27515 13.9384 1.35425C13.9232 1.43335 13.8624 1.51245 13.7712 1.51245Z" fill="#0F0F0F"/>
<path d="M12.0992 0.816403H9.8648C9.7736 0.816403 9.7128 0.737302 9.7128 0.658201C9.7128 0.579101 9.7888 0.5 9.8648 0.5H12.0992C12.1904 0.5 12.2512 0.579101 12.2512 0.658201C12.2512 0.737302 12.1752 0.816403 12.0992 0.816403Z" fill="#0F0F0F"/>
</svg>
